<?xml version="1.0" standalone="no"?>
<!DOCTYPE svg PUBLIC "-//W3C//DTD SVG 20010904//EN"
 "http://www.w3.org/TR/2001/REC-SVG-20010904/DTD/svg10.dtd">
<svg version="1.0" xmlns="http://www.w3.org/2000/svg"
 width="225.000000pt" height="225.000000pt" viewBox="0 0 225.000000 225.000000"
 preserveAspectRatio="xMidYMid meet">

<g transform="translate(0.000000,225.000000) scale(0.100000,-0.100000)"
fill="#000000" stroke="none">
<path d="M570 1370 c0 -27 3 -30 30 -30 27 0 30 3 30 30 0 27 -3 30 -30 30
-27 0 -30 -3 -30 -30z"/>
<path d="M50 1286 c-14 -8 -32 -26 -40 -40 -19 -36 -2 -67 60 -112 28 -20 50
-44 50 -54 0 -23 -33 -31 -72 -18 -24 8 -32 8 -39 -3 -15 -25 -10 -37 22 -48
57 -20 98 -14 130 18 47 47 34 91 -43 147 -27 19 -48 40 -45 47 2 7 21 12 41
13 39 0 67 27 50 44 -17 17 -88 21 -114 6z"/>
<path d="M333 1280 c-35 -16 -43 -16 -43 -5 0 10 -10 15 -30 15 l-30 0 0 -190
0 -190 30 0 30 0 0 65 0 65 40 -21 c58 -31 115 -22 157 25 71 77 49 204 -43
242 -44 18 -61 17 -111 -6z m108 -69 c31 -31 36 -64 18 -104 -28 -61 -124 -65
-154 -7 -52 100 57 189 136 111z"/>
<path d="M777 1281 c-29 -15 -37 -16 -37 -5 0 9 -11 14 -30 14 l-30 0 0 -140
0 -140 30 0 30 0 0 95 c0 82 3 98 20 115 11 11 29 20 40 20 11 0 29 -9 40 -20
17 -17 20 -33 20 -115 l0 -95 30 0 30 0 0 105 c0 122 -12 157 -61 174 -41 14
-38 14 -82 -8z"/>
<path d="M1495 1293 c-11 -3 -29 -12 -40 -19 -25 -18 -35 -18 -35 1 0 9 -9 15
-25 15 l-25 0 0 -190 0 -190 28 0 27 0 -3 65 c-2 36 -1 65 2 65 3 0 20 -9 38
-20 69 -42 154 -14 188 63 11 23 20 53 20 67 0 37 -35 106 -63 125 -28 18 -81
27 -112 18z m80 -78 c56 -55 16 -160 -59 -158 -43 1 -64 16 -83 61 -11 27 -11
37 1 66 17 40 39 55 84 56 22 0 41 -8 57 -25z"/>
<path d="M1762 1292 c-13 -4 -23 -10 -23 -14 1 -5 1 -17 1 -27 0 -17 4 -18 40
-10 56 13 109 -10 110 -47 0 -8 -12 -8 -45 -1 -89 20 -160 -24 -158 -100 2
-69 80 -115 155 -91 18 5 50 9 71 9 l37 -2 0 103 c0 62 -5 113 -13 128 -23 47
-105 71 -175 52z m116 -160 c44 -57 -43 -120 -106 -76 -32 22 -27 73 8 91 30
15 80 8 98 -15z"/>
<path d="M570 1150 l0 -140 30 0 30 0 0 140 0 140 -30 0 -30 0 0 -140z"/>
<path d="M2026 1145 c62 -142 63 -145 49 -179 -21 -49 -19 -56 13 -56 27 0 30
5 92 178 35 97 66 183 68 190 3 10 -4 13 -28 10 -32 -3 -34 -6 -65 -96 -17
-51 -34 -95 -37 -98 -5 -4 -44 81 -78 170 -8 21 -16 26 -44 26 l-34 0 64 -145z"/>
<path d="M1010 1010 l0 -30 135 0 135 0 0 30 0 30 -135 0 -135 0 0 -30z"/>
</g>
</svg>
